<svg width="1284.41767578125px" height="276.82753906249997px" xmlns="http://www.w3.org/2000/svg" viewBox="-392.208837890625 -63.41376953124998 1284.41767578125 276.82753906249997" style="background: rgba(0, 0, 0, 0);" preserveAspectRatio="xMidYMid"><defs><linearGradient id="editing-outline-gradient" x1="-0.41354545764260087" x2="1.4135454576426008" y1="0.09326335692419985" y2="0.9067366430758002"><stop offset="0" stop-color="#ee4208"></stop><stop offset="1" stop-color="#4139ff"></stop></linearGradient><filter id="editing-outline" x="-100%" y="-100%" width="300%" height="300%"><feMorphology in="SourceGraphic" operator="dilate" radius="4" result="outline"></feMorphology><feComposite operator="out" in="outline" in2="SourceAlpha"></feComposite></filter></defs><g filter="url(#editing-outline)"><g transform="translate(-212.67501211166382, 134.93999862670898)"><path d="M5.35-16.20L5.35-16.20L5.35-16.20Q5.35-20.57 7.61-31.59L7.61-31.59L16.20-75.33L6.64-75.33L7.29-80.19L7.29-80.19Q26.73-86.02 45.52-100.28L45.52-100.28L53.30-100.28L49.41-82.62L62.05-82.62L60.59-75.33L48.11-75.33L39.85-31.59L39.85-31.59Q37.75-21.55 37.75-18.14L37.75-18.14L37.75-18.14Q37.75-10.37 44.55-8.75L44.55-8.75L44.55-8.75Q42.93-3.24 37.10 0L37.10 0L37.10 0Q31.27 3.24 23.00 3.24L23.00 3.24L23.00 3.24Q14.74 3.24 10.04-1.94L10.04-1.94L10.04-1.94Q5.35-7.13 5.35-16.20ZM95.90 3.24L95.90 3.24L95.90 3.24Q60.26 3.24 60.26-30.29L60.26-30.29L60.26-30.29Q60.26-54.11 73.39-69.50L73.39-69.50L73.39-69.50Q87.32-85.86 111.46-85.86L111.46-85.86L111.46-85.86Q128.95-85.86 137.86-77.76L137.86-77.76L137.86-77.76Q146.77-69.66 146.77-52.65L146.77-52.65L146.77-52.65Q146.77-26.73 132.84-11.66L132.84-11.66L132.84-11.66Q119.23 3.24 95.90 3.24ZM100.12-67.23L100.12-67.23L100.12-67.23Q98.17-62.86 96.63-56.30L96.63-56.30L96.63-56.30Q95.09-49.73 93.15-39.37L93.15-39.37L93.15-39.37Q91.21-29.00 91.21-16.20L91.21-16.20L91.21-16.20Q91.21-11.99 92.58-9.23L92.58-9.23L92.58-9.23Q93.96-6.48 97.69-6.48L97.69-6.48L97.69-6.48Q101.41-6.48 103.76-8.26L103.76-8.26L103.76-8.26Q106.11-10.04 107.89-14.26L107.89-14.26L107.89-14.26Q111.13-21.71 113.72-35.56L113.72-35.56L113.72-35.56Q116.32-49.41 116.56-55.40L116.56-55.40L116.56-55.40Q116.80-61.40 116.80-65.85L116.80-65.85L116.80-65.85Q116.80-70.31 115.51-73.22L115.51-73.22L115.51-73.22Q114.21-76.14 110.56-76.14L110.56-76.14L110.56-76.14Q106.92-76.14 104.49-73.87L104.49-73.87L104.49-73.87Q102.06-71.60 100.12-67.23ZM221.94-27.38L221.94-27.38L221.94-27.38Q225.99-24.62 225.99-18.55L225.99-18.55L225.99-18.55Q225.99-12.47 222.91-8.59L222.91-8.59L222.91-8.59Q219.83-4.70 214.81-2.11L214.81-2.11L214.81-2.11Q204.44 3.24 193.27 3.24L193.27 3.24L193.27 3.24Q182.09 3.24 175.53 0.81L175.53 0.81L175.53 0.81Q168.97-1.62 164.59-6.16L164.59-6.16L164.59-6.16Q156.01-14.74 156.01-30.46L156.01-30.46L156.01-30.46Q156.01-54.92 169.29-69.82L169.29-69.82L169.29-69.82Q183.55-85.86 208.33-85.86L208.33-85.86L208.33-85.86Q223.72-85.86 231.34-79.38L231.34-79.38L231.34-79.38Q237.01-74.52 237.01-66.58L237.01-66.58L237.01-66.58Q237.01-38.07 187.76-38.07L187.76-38.07L187.76-38.07Q187.11-33.86 187.11-30.29L187.11-30.29L187.11-30.29Q187.11-22.84 190.43-20.01L190.43-20.01L190.43-20.01Q193.75-17.17 199.91-17.17L199.91-17.17L199.91-17.17Q206.06-17.17 212.63-20.01L212.63-20.01L212.63-20.01Q219.19-22.84 221.94-27.38ZM188.89-45.04L188.89-45.04L188.89-45.04Q200.39-45.04 207.04-52.16L207.04-52.16L207.04-52.16Q213.68-58.97 213.68-69.82L213.68-69.82L213.68-69.82Q213.68-73.55 212.30-75.57L212.30-75.57L212.30-75.57Q210.92-77.60 208.17-77.60L208.17-77.60L208.17-77.60Q205.42-77.60 203.07-76.55L203.07-76.55L203.07-76.55Q200.72-75.49 198.29-71.93L198.29-71.93L198.29-71.93Q192.29-63.83 188.89-45.04ZM293.54-85.86L293.54-85.86L293.54-85.86Q299.38-85.86 303.91-84.56L303.91-84.56L303.91-84.56Q304.07-85.21 304.40-86.99L304.40-86.99L305.21-92.02L305.21-92.02Q305.86-95.26 306.83-100.60L306.83-100.60L309.42-113.40L341.66-116.64L323.68-22.68L323.68-22.68Q323.51-21.71 323.51-20.09L323.51-20.09L323.51-17.50L323.51-17.50Q323.51-13.93 325.30-11.26L325.30-11.26L325.30-11.26Q327.08-8.59 329.99-8.59L329.99-8.59L329.99-8.59Q326.75-0.97 316.87 2.27L316.87 2.27L316.87 2.27Q313.47 3.24 308.69 3.24L308.69 3.24L308.69 3.24Q303.91 3.24 299.54 0.73L299.54 0.73L299.54 0.73Q295.16-1.78 293.87-5.99L293.87-5.99L293.87-5.99Q291.28-1.78 286.09 0.73L286.09 0.73L286.09 0.73Q280.91 3.24 273.38 3.24L273.38 3.24L273.38 3.24Q265.84 3.24 259.61 1.30L259.61 1.30L259.61 1.30Q253.37-0.65 249.48-4.86L249.48-4.86L249.48-4.86Q242.35-13.12 242.35-31.91L242.35-31.91L242.35-31.91Q242.35-56.21 256.61-70.96L256.61-70.96L256.61-70.96Q270.86-85.86 293.54-85.86ZM292.41-76.14L292.41-76.14L292.41-76.14Q286.42-76.14 283.18-69.66L283.18-69.66L283.18-69.66Q279.94-63.18 276.62-47.14L276.62-47.14L276.62-47.14Q273.29-31.10 273.29-16.69L273.29-16.69L273.29-16.69Q273.29-6.80 279.13-6.80L279.13-6.80L279.13-6.80Q284.31-6.80 287.95-11.99L287.95-11.99L287.95-11.99Q291.60-17.17 293.06-25.76L293.06-25.76L301.81-73.22L301.81-73.22Q298.40-76.14 292.41-76.14ZM346.36-16.20L346.36-16.20L346.36-16.20Q346.36-20.57 348.62-31.59L348.62-31.59L357.21-75.33L347.65-75.33L348.30-80.19L348.30-80.19Q367.74-86.02 386.53-100.28L386.53-100.28L394.31-100.28L390.42-82.62L403.06-82.62L401.60-75.33L389.12-75.33L380.86-31.59L380.86-31.59Q378.76-21.55 378.76-18.14L378.76-18.14L378.76-18.14Q378.76-10.37 385.56-8.75L385.56-8.75L385.56-8.75Q383.94-3.24 378.11 0L378.11 0L378.11 0Q372.28 3.24 364.01 3.24L364.01 3.24L364.01 3.24Q355.75 3.24 351.05-1.94L351.05-1.94L351.05-1.94Q346.36-7.13 346.36-16.20ZM467.21-27.38L467.21-27.38L467.21-27.38Q471.26-24.62 471.26-18.55L471.26-18.55L471.26-18.55Q471.26-12.47 468.18-8.59L468.18-8.59L468.18-8.59Q465.10-4.70 460.08-2.11L460.08-2.11L460.08-2.11Q449.71 3.24 438.53 3.24L438.53 3.24L438.53 3.24Q427.36 3.24 420.79 0.81L420.79 0.81L420.79 0.81Q414.23-1.62 409.86-6.16L409.86-6.16L409.86-6.16Q401.27-14.74 401.27-30.46L401.27-30.46L401.27-30.46Q401.27-54.92 414.56-69.82L414.56-69.82L414.56-69.82Q428.81-85.86 453.60-85.86L453.60-85.86L453.60-85.86Q468.99-85.86 476.60-79.38L476.60-79.38L476.60-79.38Q482.27-74.52 482.27-66.58L482.27-66.58L482.27-66.58Q482.27-38.07 433.03-38.07L433.03-38.07L433.03-38.07Q432.38-33.86 432.38-30.29L432.38-30.29L432.38-30.29Q432.38-22.84 435.70-20.01L435.70-20.01L435.70-20.01Q439.02-17.17 445.18-17.17L445.18-17.17L445.18-17.17Q451.33-17.17 457.89-20.01L457.89-20.01L457.89-20.01Q464.45-22.84 467.21-27.38ZM434.16-45.04L434.16-45.04L434.16-45.04Q445.66-45.04 452.30-52.16L452.30-52.16L452.30-52.16Q458.95-58.97 458.95-69.82L458.95-69.82L458.95-69.82Q458.95-73.55 457.57-75.57L457.57-75.57L457.57-75.57Q456.19-77.60 453.44-77.60L453.44-77.60L453.44-77.60Q450.68-77.60 448.33-76.55L448.33-76.55L448.33-76.55Q445.99-75.49 443.56-71.93L443.56-71.93L443.56-71.93Q437.56-63.83 434.16-45.04ZM538.49-45.52L538.49-45.52L538.49-45.52Q544.32-55.89 544.32-66.42L544.32-66.42L544.32-66.42Q544.32-73.39 539.30-73.39L539.30-73.39L539.30-73.39Q535.41-73.39 531.36-66.74L531.36-66.74L531.36-66.74Q527.15-60.10 525.85-51.52L525.85-51.52L517.43 0L483.89 3.24L500.42-82.62L527.15-85.86L524.23-69.50L524.23-69.50Q532.17-85.86 549.99-85.86L549.99-85.86L549.99-85.86Q559.39-85.86 564.49-81L564.49-81L564.49-81Q569.59-76.14 569.59-66.18L569.59-66.18L569.59-66.18Q569.59-56.21 563.03-49.90L563.03-49.90L563.03-49.90Q556.47-43.58 545.29-43.58L545.29-43.58L545.29-43.58Q540.43-43.58 538.49-45.52ZM557.12-9.56L557.12-9.56L557.12-9.56Q557.12-15.71 561.90-19.12L561.90-19.12L561.90-19.12Q566.68-22.52 573.48-22.52L573.48-22.52L573.48-22.52Q580.28-22.52 584.41-19.12L584.41-19.12L584.41-19.12Q588.55-15.71 588.55-9.56L588.55-9.56L588.55-9.56Q588.55-3.40 583.93-0.08L583.93-0.08L583.93-0.08Q579.31 3.24 572.51 3.24L572.51 3.24L572.51 3.24Q565.70 3.24 561.41-0.08L561.41-0.08L561.41-0.08Q557.12-3.40 557.12-9.56ZM683.15-67.39L683.15-67.39L683.15-67.39Q683.15-60.59 677.48-56.38L677.48-56.38L677.48-56.38Q671.81-52.16 662.58-52.16L662.58-52.16L662.58-52.16Q658.69-52.16 656.42-53.30L656.42-53.30L656.42-53.30Q658.21-57.51 658.77-62.77L658.77-62.77L658.77-62.77Q659.34-68.04 659.34-69.50L659.34-69.50L659.34-69.50Q659.34-76.30 654.64-76.30L654.64-76.30L654.64-76.30Q651.40-76.30 647.76-72.25L647.76-72.25L647.76-72.25Q644.11-68.20 641.03-61.88L641.03-61.88L641.03-61.88Q634.23-47.30 634.23-32.56L634.23-32.56L634.23-32.56Q634.23-24.46 637.31-20.82L637.31-20.82L637.31-20.82Q640.39-17.17 647.19-17.17L647.19-17.17L647.19-17.17Q656.59-17.17 664.04-24.95L664.04-24.95L664.04-24.95Q666.14-27.38 667.28-30.13L667.28-30.13L667.28-30.13Q673.43-26.89 673.43-17.98L673.43-17.98L673.43-17.98Q673.43-8.91 663.39-2.92L663.39-2.92L663.39-2.92Q653.02 3.24 636.50 3.24L636.50 3.24L636.50 3.24Q603.61 3.24 603.61-31.59L603.61-31.59L603.61-31.59Q603.61-57.02 618.03-71.60L618.03-71.60L618.03-71.60Q631.96-85.86 657.56-85.86L657.56-85.86L657.56-85.86Q683.15-85.86 683.15-67.39ZM722.84 3.24L722.84 3.24L722.84 3.24Q687.20 3.24 687.20-30.29L687.20-30.29L687.20-30.29Q687.20-54.11 700.33-69.50L700.33-69.50L700.33-69.50Q714.26-85.86 738.40-85.86L738.40-85.86L738.40-85.86Q755.89-85.86 764.80-77.76L764.80-77.76L764.80-77.76Q773.71-69.66 773.71-52.65L773.71-52.65L773.71-52.65Q773.71-26.73 759.78-11.66L759.78-11.66L759.78-11.66Q746.17 3.24 722.84 3.24ZM727.06-67.23L727.06-67.23L727.06-67.23Q725.11-62.86 723.57-56.30L723.57-56.30L723.57-56.30Q722.03-49.73 720.09-39.37L720.09-39.37L720.09-39.37Q718.15-29.00 718.15-16.20L718.15-16.20L718.15-16.20Q718.15-11.99 719.52-9.23L719.52-9.23L719.52-9.23Q720.90-6.48 724.63-6.48L724.63-6.48L724.63-6.48Q728.35-6.48 730.70-8.26L730.70-8.26L730.70-8.26Q733.05-10.04 734.83-14.26L734.83-14.26L734.83-14.26Q738.07-21.71 740.66-35.56L740.66-35.56L740.66-35.56Q743.26-49.41 743.50-55.40L743.50-55.40L743.50-55.40Q743.74-61.40 743.74-65.85L743.74-65.85L743.74-65.85Q743.74-70.31 742.45-73.22L742.45-73.22L742.45-73.22Q741.15-76.14 737.50-76.14L737.50-76.14L737.50-76.14Q733.86-76.14 731.43-73.87L731.43-73.87L731.43-73.87Q729.00-71.60 727.06-67.23ZM899.91 3.24L899.91 3.24L899.91 3.24Q880.31 3.24 880.31-11.99L880.31-11.99L880.31-11.99Q880.31-18.63 883.14-31.51L883.14-31.51L883.14-31.51Q885.98-44.39 886.95-49.57L886.95-49.57L886.95-49.57Q889.22-61.40 889.22-65.12L889.22-65.12L889.22-65.12Q889.22-73.39 883.06-73.39L883.06-73.39L883.06-73.39Q879.01-73.39 875.12-67.80L875.12-67.80L875.12-67.80Q871.24-62.21 869.45-51.03L869.45-51.03L859.41 0L827.82 3.24L836.57-40.82L836.57-40.82Q838.03-48.11 839.32-56.38L839.32-56.38L839.32-56.38Q840.62-64.64 840.62-65.93L840.62-65.93L840.62-65.93Q840.62-73.39 835.11-73.39L835.11-73.39L835.11-73.39Q831.38-73.39 827.33-67.88L827.33-67.88L827.33-67.88Q823.28-62.37 821.02-51.03L821.02-51.03L811.13 0L779.22 3.24L796.23-82.62L822.64-85.86L819.88-69.50L819.88-69.50Q824.09-78.25 831.87-82.05L831.87-82.05L831.87-82.05Q839.65-85.86 851.80-85.86L851.80-85.86L851.80-85.86Q858.76-85.86 863.30-82.46L863.30-82.46L863.30-82.46Q867.83-79.06 869.29-73.55L869.29-73.55L869.29-73.55Q872.05-79.22 879.09-82.54L879.09-82.54L879.09-82.54Q886.14-85.86 894.81-85.86L894.81-85.86L894.81-85.86Q903.47-85.86 907.77-84.00L907.77-84.00L907.77-84.00Q912.06-82.13 914.65-79.06L914.65-79.06L914.65-79.06Q919.03-73.39 919.03-63.02L919.03-63.02L919.03-63.02Q919.03-52.81 914.65-31.59L914.65-31.59L914.65-31.59Q912.38-21.22 912.38-17.41L912.38-17.41L912.38-17.41Q912.38-13.61 914.57-11.34L914.57-11.34L914.57-11.34Q916.76-9.07 920.00-8.75L920.00-8.75L920.00-8.75Q918.38-3.24 912.79 0L912.79 0L912.79 0Q907.20 3.24 899.91 3.24Z" fill="url(#editing-outline-gradient)"></path></g></g><style>text {
  font-size: 64px;
  font-family: Arial Black;
  dominant-baseline: central;
  text-anchor: middle;
}</style></svg>
